<svg width="139" height="139" viewBox="0 0 139 139" fill="none" xmlns="http://www.w3.org/2000/svg">
<g opacity="0.1" filter="url(#filter0_d_1_85)">
<rect x="9.5" y="1.49976" width="120" height="120" rx="60" fill="white"/>
<rect x="17.6722" y="8.91724" width="104.41" height="104.41" rx="52.2052" stroke="#BD1F17" stroke-width="1.25" stroke-dasharray="4.02 4.02"/>
<path d="M47.5283 29.7998V33.3998H43.3883V54.9998H39.4283V33.3998H35.2883V29.7998H47.5283ZM48.9483 35.8478C48.9483 33.8318 49.4643 32.2718 50.4963 31.1678C51.5283 30.0638 53.0163 29.5118 54.9603 29.5118C56.9043 29.5118 58.3923 30.0638 59.4243 31.1678C60.4563 32.2718 60.9723 33.8318 60.9723 35.8478V48.9518C60.9723 50.9678 60.4563 52.5278 59.4243 53.6318C58.3923 54.7358 56.9043 55.2878 54.9603 55.2878C53.0163 55.2878 51.5283 54.7358 50.4963 53.6318C49.4643 52.5278 48.9483 50.9678 48.9483 48.9518V35.8478ZM52.9083 49.2038C52.9083 50.8598 53.5923 51.6878 54.9603 51.6878C56.3283 51.6878 57.0123 50.8598 57.0123 49.2038V35.5958C57.0123 33.9398 56.3283 33.1118 54.9603 33.1118C53.5923 33.1118 52.9083 33.9398 52.9083 35.5958V49.2038ZM69.8098 29.7998C71.7778 29.7998 73.2538 30.3278 74.2378 31.3838C75.2218 32.4398 75.7138 33.9878 75.7138 36.0278V48.7718C75.7138 50.8118 75.2218 52.3598 74.2378 53.4158C73.2538 54.4718 71.7778 54.9998 69.8098 54.9998H63.5458V29.7998H69.8098ZM67.5058 51.3998H69.7378C70.3858 51.3998 70.8778 51.2078 71.2138 50.8238C71.5738 50.4398 71.7538 49.8158 71.7538 48.9518V35.8478C71.7538 34.9838 71.5738 34.3598 71.2138 33.9758C70.8778 33.5918 70.3858 33.3998 69.7378 33.3998H67.5058V51.3998ZM87.0259 54.9998L86.3419 50.4278H81.4819L80.7979 54.9998H77.1619L81.1939 29.7998H86.9899L91.0219 54.9998H87.0259ZM85.8019 47.0078L83.8939 34.2638L81.9859 47.0078H85.8019ZM89.8123 29.7998H93.9523L96.9763 41.2838L100 29.7998H103.78L98.7763 46.6478V54.9998H94.8163V46.6478L89.8123 29.7998ZM36.1163 71.8478C36.1163 69.8318 36.6323 68.2718 37.6643 67.1678C38.6963 66.0638 40.1843 65.5118 42.1283 65.5118C44.0723 65.5118 45.5603 66.0638 46.5923 67.1678C47.6243 68.2718 48.1403 69.8318 48.1403 71.8478V84.9518C48.1403 86.9678 47.6243 88.5278 46.5923 89.6318C45.5603 90.7358 44.0723 91.2878 42.1283 91.2878C40.1843 91.2878 38.6963 90.7358 37.6643 89.6318C36.6323 88.5278 36.1163 86.9678 36.1163 84.9518V71.8478ZM40.0763 85.2038C40.0763 86.8598 40.7603 87.6878 42.1283 87.6878C43.4963 87.6878 44.1803 86.8598 44.1803 85.2038V71.5958C44.1803 69.9398 43.4963 69.1118 42.1283 69.1118C40.7603 69.1118 40.0763 69.9398 40.0763 71.5958V85.2038ZM59.7857 76.9958V80.5958H54.6737V90.9998H50.7137V65.7998H61.1897V69.3998H54.6737V76.9958H59.7857ZM72.1607 76.9958V80.5958H67.0487V90.9998H63.0887V65.7998H73.5647V69.3998H67.0487V76.9958H72.1607ZM84.8597 76.4198V80.0198H79.4237V87.3998H86.2637V90.9998H75.4637V65.7998H86.2637V69.3998H79.4237V76.4198H84.8597ZM96.9976 90.9998C96.8536 90.5918 96.7576 90.2078 96.7096 89.8478C96.6616 89.4878 96.6376 88.8398 96.6376 87.9038V83.9438C96.6376 82.7918 96.4336 81.9758 96.0256 81.4958C95.6176 80.9918 94.9576 80.7398 94.0456 80.7398H92.6776V90.9998H88.7176V65.7998H94.6936C96.7336 65.7998 98.2216 66.2798 99.1576 67.2398C100.094 68.1758 100.562 69.6278 100.562 71.5958V73.5758C100.562 76.1678 99.6976 77.8718 97.9696 78.6878C98.9056 79.0718 99.5776 79.7198 99.9856 80.6318C100.394 81.5198 100.598 82.6598 100.598 84.0518V87.9398C100.598 88.6598 100.622 89.2478 100.67 89.7038C100.718 90.1358 100.838 90.5678 101.03 90.9998H96.9976ZM92.6776 77.1398H94.2256C95.0176 77.1398 95.6056 76.9358 95.9896 76.5278C96.3976 76.1198 96.6016 75.4358 96.6016 74.4758V71.9918C96.6016 71.0798 96.4336 70.4198 96.0976 70.0118C95.7856 69.6038 95.2816 69.3998 94.5856 69.3998H92.6776V77.1398Z" fill="#0A1425"/>
</g>
<defs>
<filter id="filter0_d_1_85" x="0.5" y="0.499756" width="138" height="138" filterUnits="userSpaceOnUse" color-interpolation-filters="sRGB">
<feFlood flood-opacity="0" result="BackgroundImageFix"/>
<feColorMatrix in="SourceAlpha" type="matrix" values="0 0 0 0 0 0 0 0 0 0 0 0 0 0 0 0 0 0 127 0" result="hardAlpha"/>
<feOffset dy="8"/>
<feGaussianBlur stdDeviation="4.5"/>
<feComposite in2="hardAlpha" operator="out"/>
<feColorMatrix type="matrix" values="0 0 0 0 0 0 0 0 0 0 0 0 0 0 0 0 0 0 0.25 0"/>
<feBlend mode="normal" in2="BackgroundImageFix" result="effect1_dropShadow_1_85"/>
<feBlend mode="normal" in="SourceGraphic" in2="effect1_dropShadow_1_85" result="shape"/>
</filter>
</defs>
</svg>
