<svg width="194" height="37" viewBox="0 0 194 37" fill="none" xmlns="http://www.w3.org/2000/svg">
<rect x="1.16839" y="0.49139" width="35.1735" height="35.1735" rx="17.5867" stroke="#E5E7EB" stroke-width="0.826531"/>
<path d="M19.8138 24.8128V20.0783H21.3924L21.6928 18.1192H19.8138V16.8477C19.8111 16.8214 19.8097 16.7911 19.8097 16.7602C19.8097 16.2194 20.2482 15.7809 20.789 15.7809C20.8348 15.7809 20.8792 15.7843 20.923 15.7904L20.9176 15.7897H21.7716V14.1228C21.321 14.0461 20.7964 13.9983 20.2623 13.9908H20.2549C20.2004 13.9861 20.137 13.9841 20.0731 13.9841C18.7524 13.9841 17.6823 15.0543 17.6823 16.3749C17.6823 16.4638 17.687 16.5521 17.6964 16.6383L17.6957 16.6275V18.1199H15.9743V20.079H17.6957V24.8135C14.4368 24.2835 11.9786 21.4893 11.9786 18.1212C11.9786 14.3794 15.0119 11.3455 18.7544 11.3455C22.4969 11.3455 25.5302 14.3788 25.5302 18.1212C25.5302 21.4893 23.072 24.2842 19.8522 24.8088L19.8131 24.8142L19.8138 24.8128Z" fill="white"/>
<rect x="53.3317" y="0.49139" width="35.1735" height="35.1735" rx="17.5867" stroke="#E5E7EB" stroke-width="0.826531"/>
<path d="M75.0678 11.9355H66.6635C65.6281 11.9355 64.7755 12.7841 64.7755 13.8145V22.1184C64.7755 23.2094 65.6281 24.058 66.6635 24.058H75.0069C76.0423 24.058 76.8949 23.2094 76.8949 22.179V13.8145C76.9558 12.7841 76.1032 11.9355 75.0678 11.9355ZM72.2055 21.2698L72.0837 21.088L70.4393 18.7241L68.2469 21.2698H67.6988L70.1957 18.3604L68.1251 15.3904L67.6988 14.7237H69.5867L69.7085 14.9055L71.2311 17.1482L72.8145 15.2692L73.3017 14.7237H73.8498L71.4747 17.5119L73.6062 20.6031L74.0934 21.2698H72.2055Z" fill="white"/>
<rect x="105.495" y="0.49139" width="35.1735" height="35.1735" rx="17.5867" stroke="#E5E7EB" stroke-width="0.826531"/>
<path d="M127.122 12.0171H119.041C117.925 12.0171 117.02 12.9216 117.02 14.0375V22.1191C117.02 23.2351 117.925 24.1395 119.041 24.1395H127.122C128.238 24.1395 129.143 23.2351 129.143 22.1191V14.0375C129.143 12.9216 128.238 12.0171 127.122 12.0171ZM127.098 19.7445C127.091 20.0987 127.023 20.4348 126.904 20.7453L126.91 20.7251C126.695 21.2692 126.273 21.6922 125.742 21.9023L125.728 21.907C125.438 22.0195 125.101 22.0875 124.75 22.0949H124.747C124.316 22.1144 124.179 22.1191 123.081 22.1191C121.983 22.1191 121.846 22.1144 121.415 22.0949C121.061 22.0875 120.724 22.0195 120.414 21.9003L120.434 21.907C119.89 21.6922 119.467 21.2692 119.257 20.7392L119.252 20.7251C119.14 20.4348 119.072 20.0981 119.064 19.7472V19.7438C119.045 19.3128 119.04 19.1754 119.04 18.0776C119.04 16.9799 119.045 16.8425 119.064 16.4115C119.072 16.0572 119.14 15.7212 119.259 15.4107L119.252 15.4309C119.466 14.8867 119.89 14.4631 120.42 14.2537L120.434 14.249C120.724 14.1365 121.061 14.0685 121.412 14.0611H121.415C121.846 14.0415 121.984 14.0368 123.082 14.0368C124.179 14.0368 124.317 14.0415 124.748 14.0611C125.102 14.0685 125.438 14.1365 125.749 14.2557L125.728 14.249C126.273 14.4631 126.696 14.8867 126.906 15.4168L126.91 15.4309C127.023 15.7212 127.091 16.0579 127.098 16.4088V16.4122C127.118 16.8432 127.122 16.9806 127.122 18.0783C127.122 19.1761 127.118 19.3135 127.098 19.7445ZM126.231 15.6949C126.093 15.3413 125.818 15.0672 125.474 14.9312L125.465 14.9278C125.242 14.843 124.985 14.7918 124.716 14.7884H124.715C124.288 14.7689 124.161 14.7648 123.082 14.7648C122.003 14.7648 121.875 14.7689 121.45 14.7884C121.18 14.7918 120.922 14.8423 120.684 14.9325L120.7 14.9272C120.346 15.0659 120.072 15.3407 119.936 15.6848L119.932 15.6936C119.848 15.9165 119.796 16.1737 119.793 16.4425V16.4438C119.774 16.8701 119.769 16.9974 119.769 18.0763C119.769 19.1552 119.774 19.2832 119.793 19.7088C119.796 19.9788 119.847 20.2368 119.937 20.4745L119.932 20.459C120.071 20.8126 120.345 21.0867 120.689 21.2227L120.698 21.2261C120.921 21.311 121.178 21.3622 121.447 21.3655H121.448C121.875 21.3851 122.002 21.3891 123.081 21.3891C124.16 21.3891 124.288 21.3851 124.713 21.3655C124.983 21.3622 125.241 21.3116 125.479 21.2214L125.464 21.2268C125.817 21.088 126.091 20.8133 126.227 20.4691L126.231 20.4604C126.316 20.2375 126.367 19.9802 126.37 19.7115V19.7101C126.39 19.2838 126.394 19.1565 126.394 18.0776C126.394 16.9987 126.39 16.8708 126.37 16.4445C126.367 16.1744 126.316 15.9172 126.226 15.6787L126.231 15.6942V15.6949ZM123.082 20.1533C121.935 20.1533 121.007 19.2246 121.007 18.0783C121.007 16.9321 121.935 16.0034 123.082 16.0034C124.228 16.0034 125.157 16.9321 125.157 18.0783C125.157 19.2246 124.228 20.1533 123.082 20.1533ZM125.239 16.4061C124.971 16.4061 124.754 16.1892 124.754 15.9212C124.754 15.6532 124.971 15.4363 125.239 15.4363C125.507 15.4363 125.724 15.6532 125.724 15.9212C125.724 16.1892 125.507 16.4061 125.239 16.4061ZM124.429 18.0783C124.429 18.8225 123.826 19.4253 123.082 19.4253C122.337 19.4253 121.735 18.8225 121.735 18.0783C121.735 17.3341 122.337 16.7314 123.082 16.7314C123.826 16.7314 124.429 17.3341 124.429 18.0783Z" fill="white"/>
<rect x="157.658" y="0.49139" width="35.1735" height="35.1735" rx="17.5867" stroke="#E5E7EB" stroke-width="0.826531"/>
<path d="M172.994 14.7776C172.994 14.2025 172.527 13.7358 171.952 13.7358C171.377 13.7358 170.91 14.2025 170.91 14.7776C170.91 15.3528 171.377 15.8195 171.952 15.8195C172.527 15.8182 172.993 15.3528 172.994 14.7776ZM172.853 22.3946V16.6108H171.054V22.3946H172.853ZM179.585 19.2239C179.585 17.6655 179.247 16.466 177.428 16.466C177.407 16.4654 177.383 16.4647 177.358 16.4647C176.667 16.4647 176.061 16.8364 175.732 17.3907L175.727 17.3995H175.702V16.6102H173.979V22.3939H175.776V19.5323C175.776 18.7767 175.92 18.046 176.856 18.046C177.776 18.046 177.79 18.9094 177.79 19.5795V22.3939H179.586L179.585 19.2239ZM171.204 12.0171H179.286C180.402 12.0171 181.306 12.9216 181.306 14.0375V22.1191C181.306 23.2351 180.402 24.1395 179.286 24.1395H171.204C170.088 24.1395 169.184 23.2351 169.184 22.1191V14.0375C169.184 12.9216 170.088 12.0171 171.204 12.0171Z" fill="white"/>
</svg>
