<svg width="40" height="40" viewBox="0 0 40 40" fill="none" xmlns="http://www.w3.org/2000/svg">
<path d="M34.36 10.0366L30.4717 4.70331C29.8583 3.86998 28.8817 3.33331 27.7783 3.33331H12.2233C11.12 3.33331 10.1433 3.86831 9.53666 4.69331L9.53 4.70331L5.64166 10.0366C5.24166 10.58 5.00166 11.2616 5.00166 12V30.6666C5.00166 30.675 5.00166 30.6866 5.00166 30.6966C5.00166 33.9783 7.65 36.6416 10.925 36.6666H29.075C32.3533 36.6416 35.0017 33.9783 35.0017 30.6966C35.0017 30.6866 35.0017 30.675 35.0017 30.665V12C35.0017 11.2616 34.7617 10.58 34.355 10.0266L34.3617 10.0366H34.36ZM12.2217 6.66665H27.7767L30.2067 9.99998H9.79L12.2217 6.66665ZM31.6667 30.6666C31.6667 30.6766 31.6667 30.69 31.6667 30.7033C31.6667 32.1433 30.51 33.3116 29.0767 33.3333H10.9267C9.49 33.3116 8.33333 32.1433 8.33333 30.7033C8.33333 30.69 8.33333 30.6783 8.33333 30.665V13.3333H31.6667V30.6666ZM12.5 17.0833C12.5 16.1633 13.2467 15.4166 14.1667 15.4166C15.0867 15.4166 15.8333 16.1633 15.8333 17.0833C15.8333 19.385 17.6983 21.25 20 21.25C22.3017 21.25 24.1667 19.385 24.1667 17.0833C24.1667 16.1633 24.9133 15.4166 25.8333 15.4166C26.7533 15.4166 27.5 16.1633 27.5 17.0833C27.5 21.225 24.1417 24.5833 20 24.5833C15.8583 24.5833 12.5 21.225 12.5 17.0833Z" fill="#BD1F17"/>
</svg>
