<svg width="30" height="31" viewBox="0 0 30 31" fill="none" xmlns="http://www.w3.org/2000/svg">
<path d="M23.9625 27.6218C23.875 27.6218 23.7762 27.6168 23.6775 27.6081C19.7912 27.1743 16.2812 25.8656 13.2512 23.8831L13.3425 23.9393C10.4425 22.0706 8.04747 19.6731 6.23622 16.8656L6.17997 16.7731C4.25247 13.8306 2.94497 10.3156 2.52747 6.53307L2.51747 6.42682C2.50747 6.32682 2.50122 6.20932 2.50122 6.09182C2.50122 4.26307 3.89872 2.76182 5.68372 2.59432L5.69747 2.59307C5.80122 2.58307 5.90622 2.57807 6.01122 2.57807H9.43997C11.2237 2.58307 12.695 3.91807 12.9125 5.64307L12.9137 5.66057C13.09 6.76307 13.3475 7.74057 13.6875 8.67807L13.6512 8.56432L13.69 8.68682C13.795 9.00432 13.855 9.37057 13.855 9.75182C13.855 10.7143 13.4675 11.5868 12.8387 12.2206L12.0887 12.9693C13.4075 14.9931 15.085 16.6693 17.0437 17.9493L17.1087 17.9893L17.8525 17.2456C18.4887 16.6156 19.3637 16.2268 20.33 16.2268C20.7712 16.2268 21.1925 16.3081 21.5812 16.4556L21.5575 16.4481C22.3975 16.7731 23.3787 17.0268 24.3962 17.1668L24.4662 17.1743C26.1887 17.4181 27.5 18.8843 27.5 20.6556C27.5 20.6793 27.5 20.7031 27.4987 20.7268V20.7231V24.1031C27.4987 24.1056 27.4987 24.1081 27.4987 24.1093C27.4987 26.0443 25.935 27.6143 24.0012 27.6243L23.9625 27.6218ZM9.42747 5.07807H6.01122C5.70122 5.08557 5.42622 5.22432 5.23747 5.44057L5.23622 5.44182C5.08997 5.61557 5.00122 5.84182 5.00122 6.08807C5.00122 6.12057 5.00247 6.15307 5.00622 6.18557V6.18182C5.39122 9.65557 6.55997 12.7943 8.33247 15.5031L8.28247 15.4218C9.95372 18.0181 12.0975 20.1631 14.61 21.7856L14.6925 21.8356C17.3162 23.5581 20.45 24.7293 23.8237 25.1118L23.9212 25.1206C23.9362 25.1218 23.9537 25.1218 23.9725 25.1218C24.5362 25.1218 24.995 24.6681 25.0025 24.1056V20.6756C25.0025 20.6681 25.0025 20.6593 25.0025 20.6506C25.0025 20.1418 24.6262 19.7206 24.1375 19.6493L24.1325 19.6481C22.845 19.4731 21.6825 19.1718 20.5787 18.7506L20.6875 18.7868C20.5812 18.7443 20.4575 18.7206 20.3287 18.7206C20.0537 18.7206 19.8037 18.8318 19.6225 19.0118L18.1875 20.4468C17.9612 20.6731 17.6487 20.8131 17.3037 20.8131C17.0762 20.8131 16.8637 20.7531 16.68 20.6468L16.6862 20.6506C13.6425 18.8981 11.1825 16.4381 9.47997 13.4881L9.42997 13.3943C9.32747 13.2168 9.26622 13.0031 9.26622 12.7768C9.26622 12.4318 9.40622 12.1193 9.63247 11.8931L11.0687 10.4568C11.2475 10.2743 11.3575 10.0256 11.3575 9.74932C11.3575 9.63932 11.34 9.53432 11.3075 9.43557L11.31 9.44307L11.2725 9.32432C10.9225 8.36932 10.6312 7.23807 10.45 6.07057L10.4362 5.96682C10.3712 5.46307 9.94622 5.07807 9.42997 5.07807H9.42747ZM22.3125 13.4756C21.7075 13.4743 21.2037 13.0443 21.0887 12.4731L21.0875 12.4656C20.7375 10.6943 19.3637 9.32057 17.6212 8.97557L17.5937 8.97057C17.0137 8.85432 16.5825 8.34932 16.5825 7.74307C16.5825 7.05307 17.1425 6.49307 17.8325 6.49307C17.9175 6.49307 18 6.50182 18.0787 6.51682L18.0712 6.51557C20.8437 7.06307 22.9937 9.21307 23.5337 11.9418L23.5412 11.9856C23.5562 12.0581 23.5637 12.1406 23.5637 12.2243C23.5637 12.9143 23.0037 13.4743 22.3137 13.4743L22.3125 13.4756ZM26.8512 13.4631C26.21 13.4618 25.6825 12.9793 25.61 12.3581V12.3518C25.1462 8.18182 21.865 4.90432 17.7337 4.44932L17.6937 4.44557C17.065 4.37307 16.5812 3.84432 16.5812 3.20182C16.5812 3.15432 16.5837 3.10682 16.5887 3.06057V3.06682C16.6687 2.43807 17.2 1.95557 17.845 1.95557C17.8887 1.95557 17.9325 1.95807 17.975 1.96182H17.97C23.305 2.54807 27.5025 6.74182 28.0912 12.0243L28.0962 12.0756C28.1012 12.1168 28.1037 12.1656 28.1037 12.2143C28.1037 12.8556 27.6212 13.3843 26.9987 13.4568H26.9925C26.9512 13.4618 26.905 13.4643 26.8575 13.4643C26.8562 13.4643 26.8537 13.4643 26.8525 13.4643L26.8512 13.4631Z" fill="#FEBF00"/>
</svg>
