<svg width="30" height="31" viewBox="0 0 30 31" fill="none" xmlns="http://www.w3.org/2000/svg">
<path d="M15 26.3281C8.78625 26.3281 3.75 21.2919 3.75 15.0781C3.75 8.86437 8.78625 3.82812 15 3.82812C21.2138 3.82812 26.25 8.86437 26.25 15.0781C26.2425 21.2881 21.21 26.3206 15.0013 26.3281H15ZM15 6.32812C10.1675 6.32812 6.25 10.2456 6.25 15.0781C6.25 19.9106 10.1675 23.8281 15 23.8281C19.8325 23.8281 23.75 19.9106 23.75 15.0781C23.7437 10.2481 19.83 6.33437 15 6.32812ZM20.0212 17.0431C20.08 16.9031 20.1138 16.7406 20.1138 16.5694C20.1138 16.0494 19.7962 15.6044 19.345 15.4156L19.3363 15.4131L16.1363 14.1031V9.07062C16.1363 8.38062 15.5763 7.82062 14.8863 7.82062C14.1963 7.82062 13.6363 8.38062 13.6363 9.07062V14.9431C13.6363 15.4631 13.9538 15.9081 14.405 16.0969L14.4137 16.0994L18.3913 17.7269C18.5312 17.7869 18.695 17.8206 18.8663 17.8206C19.3863 17.8206 19.8312 17.5031 20.0187 17.0519L20.0212 17.0431Z" fill="#FEBF00"/>
</svg>
