<svg width="37" height="37" viewBox="0 0 37 37" fill="none" xmlns="http://www.w3.org/2000/svg">
<rect x="1.16839" y="0.49139" width="35.1735" height="35.1735" rx="17.5867" stroke="#E5E7EB" stroke-width="0.826531"/>
<path d="M19.8138 24.8128V20.0783H21.3924L21.6928 18.1192H19.8138V16.8477C19.8111 16.8214 19.8097 16.7911 19.8097 16.7602C19.8097 16.2194 20.2482 15.7809 20.789 15.7809C20.8348 15.7809 20.8792 15.7843 20.923 15.7904L20.9176 15.7897H21.7716V14.1228C21.321 14.0461 20.7964 13.9983 20.2623 13.9908H20.2549C20.2004 13.9861 20.137 13.9841 20.0731 13.9841C18.7524 13.9841 17.6823 15.0543 17.6823 16.3749C17.6823 16.4638 17.687 16.5521 17.6964 16.6383L17.6957 16.6275V18.1199H15.9743V20.079H17.6957V24.8135C14.4368 24.2835 11.9786 21.4893 11.9786 18.1212C11.9786 14.3794 15.0119 11.3455 18.7544 11.3455C22.4969 11.3455 25.5302 14.3788 25.5302 18.1212C25.5302 21.4893 23.072 24.2842 19.8522 24.8088L19.8131 24.8142L19.8138 24.8128Z" fill="white"/>
</svg>
