<svg width="37" height="37" viewBox="0 0 37 37" fill="none" xmlns="http://www.w3.org/2000/svg">
<rect x="0.49493" y="0.49139" width="35.1735" height="35.1735" rx="17.5867" stroke="#E5E7EB" stroke-width="0.826531"/>
<path d="M22.1224 12.0171H14.0408C12.9249 12.0171 12.0204 12.9216 12.0204 14.0375V22.1191C12.0204 23.2351 12.9249 24.1395 14.0408 24.1395H22.1224C23.2384 24.1395 24.1428 23.2351 24.1428 22.1191V14.0375C24.1428 12.9216 23.2384 12.0171 22.1224 12.0171ZM22.0982 19.7445C22.0908 20.0987 22.0228 20.4348 21.9036 20.7453L21.9103 20.7251C21.6954 21.2692 21.2725 21.6922 20.7425 21.9023L20.7283 21.907C20.4381 22.0195 20.1013 22.0875 19.7505 22.0949H19.7471C19.3161 22.1144 19.1787 22.1191 18.0809 22.1191C16.9832 22.1191 16.8458 22.1144 16.4148 22.0949C16.0605 22.0875 15.7245 22.0195 15.414 21.9003L15.4342 21.907C14.89 21.6922 14.4671 21.2692 14.257 20.7392L14.2523 20.7251C14.1398 20.4348 14.0718 20.0981 14.0644 19.7472V19.7438C14.0448 19.3128 14.0401 19.1754 14.0401 18.0776C14.0401 16.9799 14.0448 16.8425 14.0644 16.4115C14.0718 16.0572 14.1398 15.7212 14.259 15.4107L14.2523 15.4309C14.4664 14.8867 14.89 14.4631 15.4201 14.2537L15.4342 14.249C15.7245 14.1365 16.0612 14.0685 16.4121 14.0611H16.4154C16.8465 14.0415 16.9839 14.0368 18.0816 14.0368C19.1794 14.0368 19.3168 14.0415 19.7478 14.0611C20.102 14.0685 20.4381 14.1365 20.7486 14.2557L20.7283 14.249C21.2725 14.4631 21.6961 14.8867 21.9056 15.4168L21.9103 15.4309C22.0228 15.7212 22.0908 16.0579 22.0982 16.4088V16.4122C22.1177 16.8432 22.1224 16.9806 22.1224 18.0783C22.1224 19.1761 22.1177 19.3135 22.0982 19.7445ZM21.2314 15.6949C21.0927 15.3413 20.8179 15.0672 20.4738 14.9312L20.465 14.9278C20.2421 14.843 19.9848 14.7918 19.7161 14.7884H19.7148C19.2885 14.7689 19.1612 14.7648 18.0823 14.7648C17.0034 14.7648 16.8754 14.7689 16.4498 14.7884C16.1797 14.7918 15.9218 14.8423 15.6841 14.9325L15.6995 14.9272C15.346 15.0659 15.0719 15.3407 14.9358 15.6848L14.9325 15.6936C14.8476 15.9165 14.7964 16.1737 14.7931 16.4425V16.4438C14.7735 16.8701 14.7695 16.9974 14.7695 18.0763C14.7695 19.1552 14.7735 19.2832 14.7931 19.7088C14.7964 19.9788 14.8469 20.2368 14.9372 20.4745L14.9318 20.459C15.0705 20.8126 15.3453 21.0867 15.6894 21.2227L15.6982 21.2261C15.9211 21.311 16.1784 21.3622 16.4471 21.3655H16.4484C16.8748 21.3851 17.002 21.3891 18.0809 21.3891C19.1598 21.3891 19.2878 21.3851 19.7134 21.3655C19.9835 21.3622 20.2414 21.3116 20.4792 21.2214L20.4637 21.2268C20.8172 21.088 21.0913 20.8133 21.2274 20.4691L21.2308 20.4604C21.3156 20.2375 21.3668 19.9802 21.3702 19.7115V19.7101C21.3897 19.2838 21.3937 19.1565 21.3937 18.0776C21.3937 16.9987 21.3897 16.8708 21.3702 16.4445C21.3668 16.1744 21.3163 15.9172 21.226 15.6787L21.2314 15.6942V15.6949ZM18.0816 20.1533C16.9354 20.1533 16.0067 19.2246 16.0067 18.0783C16.0067 16.9321 16.9354 16.0034 18.0816 16.0034C19.2279 16.0034 20.1566 16.9321 20.1566 18.0783C20.1566 19.2246 19.2279 20.1533 18.0816 20.1533ZM20.2387 16.4061C19.9707 16.4061 19.7538 16.1892 19.7538 15.9212C19.7538 15.6532 19.9707 15.4363 20.2387 15.4363C20.5068 15.4363 20.7236 15.6532 20.7236 15.9212C20.7236 16.1892 20.5068 16.4061 20.2387 16.4061ZM19.4286 18.0783C19.4286 18.8225 18.8258 19.4253 18.0816 19.4253C17.3374 19.4253 16.7347 18.8225 16.7347 18.0783C16.7347 17.3341 17.3374 16.7314 18.0816 16.7314C18.8258 16.7314 19.4286 17.3341 19.4286 18.0783Z" fill="white"/>
</svg>
