<svg width="37" height="37" viewBox="0 0 37 37" fill="none" xmlns="http://www.w3.org/2000/svg">
<rect x="0.658138" y="0.49139" width="35.1735" height="35.1735" rx="17.5867" stroke="#E5E7EB" stroke-width="0.826531"/>
<path d="M15.9941 14.7776C15.9941 14.2025 15.5274 13.7358 14.9522 13.7358C14.3771 13.7358 13.9104 14.2025 13.9104 14.7776C13.9104 15.3528 14.3771 15.8195 14.9522 15.8195C15.5267 15.8182 15.9927 15.3528 15.9941 14.7776ZM15.8533 22.3946V16.6108H14.0538V22.3946H15.8533ZM22.5853 19.2239C22.5853 17.6655 22.2472 16.466 20.4282 16.466C20.4073 16.4654 20.3831 16.4647 20.3582 16.4647C19.6665 16.4647 19.0611 16.8364 18.7317 17.3907L18.727 17.3995H18.7021V16.6102H16.9787V22.3939H18.7762V19.5323C18.7762 18.7767 18.9196 18.046 19.8564 18.046C20.7764 18.046 20.7899 18.9094 20.7899 19.5795V22.3939H22.586L22.5853 19.2239ZM14.204 12.0171H22.2856C23.4016 12.0171 24.306 12.9216 24.306 14.0375V22.1191C24.306 23.2351 23.4016 24.1395 22.2856 24.1395H14.204C13.0881 24.1395 12.1836 23.2351 12.1836 22.1191V14.0375C12.1836 12.9216 13.0881 12.0171 14.204 12.0171Z" fill="white"/>
</svg>
