<svg width="30" height="31" viewBox="0 0 30 31" fill="none" xmlns="http://www.w3.org/2000/svg">
<path d="M25 3.82812H5C2.93 3.83063 1.2525 5.50812 1.25 7.57812V22.5781C1.2525 24.6481 2.93 26.3256 5 26.3281H25C27.07 26.3256 28.7475 24.6481 28.75 22.5781V7.57812C28.7475 5.50812 27.07 3.83063 25 3.82812ZM5 6.32812H25C25.485 6.33188 25.9025 6.61313 26.1037 7.01937L26.1075 7.02688L15 14.8019L3.8925 7.02688C4.0975 6.61188 4.515 6.33188 5 6.32812ZM25 23.8281H5C4.31 23.8269 3.75125 23.2681 3.75 22.5781V9.97937L14.2838 17.3531C14.4838 17.4944 14.7325 17.5794 15 17.5794C15.2675 17.5794 15.5163 17.4944 15.72 17.3506L15.7162 17.3531L26.25 9.97937V22.5781C26.2488 23.2681 25.69 23.8269 25 23.8281Z" fill="#FEBF00"/>
</svg>
