<svg width="30" height="31" viewBox="0 0 30 31" fill="none" xmlns="http://www.w3.org/2000/svg">
<path d="M15 27.5781C15 27.5781 15 27.5781 14.9987 27.5781C14.73 27.5781 14.4812 27.4931 14.2775 27.3481L14.2812 27.3506C13.9025 27.0856 4.99872 20.7531 4.99872 13.0319C4.99747 12.9694 4.99622 12.8956 4.99622 12.8219C4.99622 7.24937 9.44497 2.71437 14.9862 2.57812H14.9987C20.5512 2.71437 25.0012 7.24812 25.0012 12.8219C25.0012 12.8956 25 12.9694 24.9987 13.0431V13.0319C24.9987 20.7531 16.095 27.0856 15.7162 27.3506C15.5162 27.4931 15.2675 27.5781 14.9987 27.5781H15ZM15 5.07812C10.8275 5.21312 7.49747 8.62812 7.49747 12.8194C7.49747 12.8944 7.49872 12.9681 7.50122 13.0431V13.0319C7.50122 18.3069 12.9987 23.1619 15.0012 24.7569C17.0037 23.1631 22.5012 18.3069 22.5012 13.0319C22.5025 12.9681 22.5037 12.8944 22.5037 12.8194C22.5037 8.62687 19.1725 5.21187 15.0137 5.07812H15.0012H15ZM15 17.4644C14.9775 17.4644 14.95 17.4656 14.9225 17.4656C12.3487 17.4656 10.2625 15.3794 10.2625 12.8056C10.2625 10.2319 12.3487 8.14563 14.9225 8.14563C17.4962 8.14563 19.5825 10.2319 19.5825 12.8056C19.5825 12.8156 19.5825 12.8269 19.5825 12.8381C19.5825 15.3781 17.5362 17.4406 15.0012 17.4644H14.9987H15ZM15 10.6456C14.9762 10.6444 14.95 10.6444 14.9225 10.6444C13.7287 10.6444 12.7612 11.6119 12.7612 12.8056C12.7612 13.9994 13.7287 14.9669 14.9225 14.9669C16.1162 14.9669 17.0837 13.9994 17.0837 12.8056C17.0837 12.7956 17.0837 12.7831 17.0837 12.7706C17.0837 11.6119 16.1562 10.6694 15.0025 10.6456H15Z" fill="#FEBF00"/>
</svg>
