<svg width="40" height="40" viewBox="0 0 40 40" fill="none" xmlns="http://www.w3.org/2000/svg">
<path d="M11.0033 29.5033C11.1583 29.7366 11.3167 29.975 11.4783 30.2233C11.8333 30.8616 12.505 31.285 13.275 31.285C13.4083 31.285 13.5383 31.2716 13.665 31.2483L13.6517 31.25C14.5917 31.13 15.545 31.0116 16.4867 30.9183C16.7217 31.0633 16.9517 31.2133 17.1817 31.3633L17.34 31.4666C16.8922 32.8444 16.4489 34.22 16.01 35.5933L13.6783 33.7283L13.5233 33.65C13.1917 33.4783 12.7983 33.3783 12.3833 33.3783C12.285 33.3783 12.1883 33.3833 12.0933 33.395L12.105 33.3933L9.70999 33.53L11.0033 29.5033ZM10.315 26.1966L7.38999 35.3066C7.46555 35.3111 7.54055 35.3133 7.61499 35.3133C7.68944 35.3133 7.76444 35.3111 7.83999 35.3066L12.2533 35.0566C12.2917 35.05 12.335 35.0466 12.38 35.0466C12.5233 35.0466 12.6567 35.0816 12.7767 35.1416L12.7717 35.14L16.7667 38.3316H17V37.9633C17.735 35.6566 18.4717 33.3666 19.2233 31.0583C19.3067 30.8083 19.2567 30.69 19.0233 30.5566C18.3883 30.1716 17.7867 29.7533 17.1517 29.37C16.9967 29.285 16.81 29.235 16.6133 29.235L16.55 29.2366C15.4967 29.3366 14.4267 29.47 13.3733 29.605C13.3433 29.6133 13.31 29.6183 13.2733 29.6183C13.1167 29.6183 12.9817 29.525 12.9217 29.3916L12.92 29.39C12.3183 28.4533 11.75 27.6683 11.2483 26.7816C11.0533 26.4516 10.71 26.2283 10.315 26.1966ZM29.0617 29.485L30.3583 33.5316L27.9433 33.4016C27.81 33.3733 27.6567 33.3566 27.5 33.3566C27.2217 33.3566 26.955 33.4083 26.71 33.5033L26.725 33.4983L26.4733 33.5933L24.055 35.56C24.0117 35.4189 23.9672 35.2772 23.9217 35.135L23.6383 34.245C23.345 33.3216 23.05 32.3933 22.75 31.47C23.0333 31.2916 23.3233 31.1033 23.625 30.9033L26.4217 31.2516C26.5333 31.2733 26.6633 31.2866 26.795 31.2866C27.5733 31.2866 28.25 30.8533 28.5967 30.215L28.6017 30.205C28.7517 29.9616 28.9033 29.7233 29.0583 29.485H29.0617ZM29.7567 26.1966C29.3583 26.2333 29.02 26.4566 28.8233 26.7766L28.82 26.7816C28.235 27.7183 27.6833 28.52 27.1483 29.39C27.0867 29.5266 26.9533 29.62 26.7967 29.62C26.7617 29.62 26.7267 29.615 26.695 29.6066H26.6983L23.605 29.2216C23.56 29.2133 23.5067 29.21 23.4533 29.21C23.2333 29.21 23.03 29.2833 22.8667 29.4066L22.8683 29.405C22.2667 29.8066 21.665 30.19 21.0467 30.5583C20.9967 30.5766 20.955 30.605 20.92 30.64C20.8567 30.7033 20.8183 30.7916 20.8183 30.8883C20.8183 30.9516 20.835 31.0116 20.865 31.0616L20.8633 31.06C21.365 32.5816 21.85 34.12 22.335 35.64C22.62 36.5433 22.8867 37.445 23.1533 38.3316H23.2867L27.3167 35.0566C27.3717 35.035 27.435 35.0233 27.5 35.0233C27.565 35.0233 27.63 35.035 27.6867 35.0583L27.6833 35.0566L32.6817 35.3233L29.7567 26.1966ZM17.0517 26.9816L14.41 27.3C14.3783 27.31 14.34 27.315 14.3017 27.315C14.1383 27.315 13.9983 27.2133 13.9433 27.0683L13.9417 27.065C13.5067 26.3466 13.0717 25.6266 12.6217 24.925C12.4883 24.7383 12.3067 24.5933 12.095 24.51L12.0867 24.5066C11.3017 24.205 10.415 23.9383 9.67999 23.6716C9.62499 23.6633 9.57499 23.6433 9.52999 23.6166L9.53166 23.6183C9.42333 23.55 9.35166 23.43 9.35166 23.2933C9.35166 23.2616 9.35499 23.2316 9.36166 23.2033V23.2066C9.30999 22.2066 9.20999 21.2816 9.05833 20.3716L9.07833 20.515C9.03833 20.3783 8.96999 20.26 8.87833 20.1633C8.25999 19.5283 7.62499 18.91 6.98999 18.2916C6.89166 18.225 6.82666 18.1133 6.82666 17.9866C6.82666 17.9216 6.84333 17.8583 6.87499 17.805L6.87333 17.8066C7.17333 16.9866 7.47499 16.135 7.75999 15.35C7.78333 15.2666 7.79666 15.1716 7.79666 15.075C7.79666 14.9783 7.78333 14.8816 7.75833 14.7916L7.75999 14.7983C7.47499 13.98 7.17499 13.1266 6.87333 12.34C6.84666 12.2866 6.82999 12.225 6.82999 12.1583C6.82999 12.0283 6.89166 11.9116 6.98833 11.8383L8.81166 10.115C8.97833 9.95998 9.08666 9.74164 9.09499 9.49831C9.09499 8.64498 9.27833 7.82498 9.36333 6.92164C9.36333 6.91998 9.36333 6.91831 9.36333 6.91664C9.36333 6.74998 9.48499 6.61164 9.64499 6.58664C10.48 6.30164 11.3183 6.03498 12.1217 5.73331C12.3133 5.64498 12.4717 5.51331 12.5883 5.35164L12.59 5.34831C13.0583 4.62998 13.51 3.90998 13.945 3.17498C14.0133 3.02164 14.1667 2.91664 14.3417 2.91664C14.3733 2.91664 14.4033 2.91998 14.4317 2.92664H14.4283C15.265 3.04331 16.1 3.15998 16.9533 3.22664C17.0083 3.23831 17.0717 3.24331 17.1383 3.24331C17.2967 3.24331 17.445 3.20664 17.5783 3.13998L17.5733 3.14331C18.325 2.70831 19.045 2.23998 19.7633 1.75498C19.825 1.69998 19.9067 1.66498 19.9967 1.66498C20.0867 1.66498 20.1683 1.69831 20.2317 1.75498C20.9833 2.23998 21.72 2.72498 22.4717 3.17664C22.5983 3.25331 22.7517 3.29831 22.915 3.29831C22.9467 3.29831 22.98 3.29664 23.01 3.29331H23.0067C23.8767 3.20998 24.6783 3.09331 25.615 2.97498C25.6383 2.96998 25.6667 2.96664 25.6933 2.96664C25.845 2.96664 25.975 3.05831 26.0317 3.18998L26.0333 3.19164C26.485 3.94331 26.9367 4.69664 27.42 5.43164C27.5233 5.57998 27.665 5.69498 27.8317 5.76331L27.8383 5.76498C28.6583 6.06664 29.51 6.34998 30.3133 6.61831C30.4933 6.64331 30.6317 6.79664 30.6317 6.98331C30.6317 6.98998 30.6317 6.99664 30.6317 7.00498C30.7205 7.9072 30.8205 8.80831 30.9317 9.71164C30.965 9.86331 31.0417 9.99498 31.1483 10.0966C31.7667 10.7316 32.4017 11.35 33.0367 11.9683C33.1233 12.03 33.1783 12.1283 33.1783 12.2416C33.1783 12.3016 33.1633 12.3566 33.135 12.405L33.1367 12.4033C32.8367 13.2233 32.535 14.075 32.25 14.8616C32.2217 14.9516 32.2067 15.055 32.2067 15.1633C32.2067 15.2716 32.2233 15.375 32.2517 15.4716L32.25 15.465C32.5167 16.2833 32.8183 17.1366 33.12 17.905C33.1517 17.9583 33.1717 18.0233 33.1717 18.0916C33.1717 18.2133 33.1117 18.3216 33.0217 18.3883C32.3867 18.99 31.7833 19.5916 31.1817 20.21C31.045 20.3583 30.95 20.5466 30.915 20.755L30.9133 20.7616C30.7967 21.6316 30.7133 22.4333 30.63 23.37C30.6233 23.55 30.4883 23.6966 30.315 23.7216C29.495 24.0066 28.6417 24.2733 27.8383 24.5733C27.6683 24.6483 27.5283 24.7633 27.4217 24.905L27.42 24.9083C26.9517 25.6433 26.4833 26.3966 26.05 27.1483C25.9817 27.2783 25.8483 27.365 25.695 27.365C25.655 27.365 25.6167 27.3583 25.58 27.3483H25.5833C24.7367 27.2261 23.8839 27.1261 23.025 27.0483C23.0083 27.0466 22.99 27.0466 22.9717 27.0466C22.77 27.0466 22.58 27.1033 22.4183 27.2L22.4233 27.1966C21.6883 27.6316 20.9683 28.0983 20.25 28.5833C20.185 28.6366 20.1 28.67 20.0083 28.67C19.9167 28.67 19.8317 28.6366 19.765 28.5833L17.5583 27.165C17.4283 27.1033 17.2683 27.0416 17.1033 26.99L17.0733 26.9816H17.0517ZM10.7 15.0966C10.7 15.1016 10.7 15.1066 10.7 15.1133C10.7 20.2466 14.8617 24.4083 19.995 24.4083C25.1283 24.4083 29.29 20.2466 29.29 15.1133C29.29 9.97998 25.1283 5.81831 19.995 5.81831C16.1533 5.81831 12.855 8.14998 11.44 11.475L11.4167 11.535C10.9667 12.5866 10.7033 13.81 10.7017 15.0933V15.095L10.7 15.0966ZM20.0117 7.97498V9.64164C23.03 9.64664 25.475 12.095 25.475 15.1133C25.475 18.135 23.025 20.585 20.0033 20.585C20 20.585 19.9967 20.585 19.995 20.585C16.9767 20.58 14.5317 18.1316 14.5317 15.1133C14.5317 12.1066 16.9583 9.66498 19.96 9.64164H19.9617L20.0117 7.97498ZM20.0117 7.97498H19.945C16.0317 7.99331 12.8667 11.17 12.8667 15.0866C12.8667 19.0133 16.05 22.1983 19.9783 22.1983C23.9067 22.1983 27.09 19.015 27.09 15.0866C27.09 11.1716 23.925 7.99498 20.0133 7.97498H20.0117Z" fill="#BD1F17"/>
</svg>
