<svg width="40" height="40" viewBox="0 0 40 40" fill="none" xmlns="http://www.w3.org/2000/svg">
<path d="M34.13 9.46169L22.4684 3.13002C21.755 2.73669 20.905 2.50336 20 2.50336C19.0984 2.50336 18.25 2.73336 17.5117 3.14002L17.5384 3.12669L5.86836 9.46502C4.36002 10.29 3.35169 11.8584 3.33502 13.6634V26.335C3.35169 28.1434 4.36336 29.7134 5.84669 30.525L5.87169 30.5384L17.5334 36.8684C18.2217 37.2467 19.0417 37.4734 19.9134 37.4834H19.9167C19.9467 37.485 19.9717 37.5 20.0017 37.5C20.0317 37.5 20.0534 37.485 20.0817 37.4834C20.955 37.475 21.775 37.2484 22.49 36.8567L22.4634 36.87L34.1367 30.5317C35.6434 29.7067 36.65 28.14 36.6684 26.3367V13.6617C36.65 11.8534 35.64 10.2834 34.1567 9.47336L34.1317 9.46002L34.13 9.46169ZM19.135 6.05336C19.385 5.91502 19.6834 5.83502 20 5.83502C20.32 5.83502 20.62 5.91669 20.88 6.06169L20.87 6.05669L31.15 11.6384L27.1317 13.9634L16.1884 7.65169L19.135 6.05336ZM20 18.09L8.84836 11.6384L12.7534 9.51836L23.8034 15.89L20 18.09ZM7.46836 27.6134C6.99836 27.3667 6.68169 26.8884 6.66669 26.335V14.2284L18.3334 20.9784V33.5117L7.46836 27.6134ZM32.5384 27.6084L21.6684 33.51V20.9767L33.335 14.2267V26.33C33.3217 26.8834 33.0067 27.3617 32.5467 27.6034L32.5384 27.6067V27.6084Z" fill="#BD1F17"/>
</svg>
