<svg width="37" height="37" viewBox="0 0 37 37" fill="none" xmlns="http://www.w3.org/2000/svg">
<rect x="1.33172" y="0.49139" width="35.1735" height="35.1735" rx="17.5867" stroke="#E5E7EB" stroke-width="0.826531"/>
<path d="M23.0678 11.9355H14.6635C13.6281 11.9355 12.7755 12.7841 12.7755 13.8145V22.1184C12.7755 23.2094 13.6281 24.058 14.6635 24.058H23.0069C24.0423 24.058 24.8949 23.2094 24.8949 22.179V13.8145C24.9558 12.7841 24.1032 11.9355 23.0678 11.9355ZM20.2055 21.2698L20.0837 21.088L18.4393 18.7241L16.2469 21.2698H15.6988L18.1957 18.3604L16.1251 15.3904L15.6988 14.7237H17.5867L17.7085 14.9055L19.2311 17.1482L20.8145 15.2692L21.3017 14.7237H21.8498L19.4747 17.5119L21.6062 20.6031L22.0934 21.2698H20.2055Z" fill="white"/>
</svg>
