<?xml version="1.0" encoding="UTF-8" standalone="no"?>
<!-- Created with Inkscape (http://www.inkscape.org/) -->

<svg
   version="1.1"
   id="svg1"
   width="94.20826"
   height="94.151909"
   viewBox="0 0 94.20826 94.151909"
   sodipodi:docname="circle.svg"
   inkscape:version="1.2.2 (732a01da63, 2022-12-09)"
   inkscape:export-filename="bitmap.png"
   inkscape:export-xdpi="96"
   inkscape:export-ydpi="96"
   xmlns:inkscape="http://www.inkscape.org/namespaces/inkscape"
   xmlns:sodipodi="http://sodipodi.sourceforge.net/DTD/sodipodi-0.dtd"
   xmlns="http://www.w3.org/2000/svg"
   xmlns:svg="http://www.w3.org/2000/svg">
  <defs
     id="defs1">
    <filter
       id="filter0_d_1_868"
       x="0"
       y="26.25"
       width="293.168"
       height="188.75"
       filterUnits="userSpaceOnUse"
       color-interpolation-filters="sRGB">
      <feFlood
         flood-opacity="0"
         result="BackgroundImageFix"
         id="feFlood34246" />
      <feColorMatrix
         in="SourceAlpha"
         type="matrix"
         values="0 0 0 0 0 0 0 0 0 0 0 0 0 0 0 0 0 0 127 0"
         result="hardAlpha"
         id="feColorMatrix34248" />
      <feOffset
         dx="-5"
         dy="22"
         id="feOffset34250" />
      <feGaussianBlur
         stdDeviation="13"
         id="feGaussianBlur34252" />
      <feComposite
         in2="hardAlpha"
         operator="out"
         id="feComposite34254" />
      <feColorMatrix
         type="matrix"
         values="0 0 0 0 0.370833 0 0 0 0 0.370833 0 0 0 0 0.370833 0 0 0 0.25 0"
         id="feColorMatrix34256" />
      <feBlend
         mode="multiply"
         in2="BackgroundImageFix"
         result="effect1_dropShadow_1_868"
         id="feBlend34258" />
      <feBlend
         mode="normal"
         in="SourceGraphic"
         in2="effect1_dropShadow_1_868"
         result="shape"
         id="feBlend34260" />
    </filter>
  </defs>
  <sodipodi:namedview
     id="namedview1"
     pagecolor="#ffffff"
     bordercolor="#cccccc"
     borderopacity="1"
     inkscape:showpageshadow="0"
     inkscape:pageopacity="1"
     inkscape:pagecheckerboard="0"
     inkscape:deskcolor="#d1d1d1"
     showgrid="false"
     inkscape:zoom="1.3775"
     inkscape:cx="16.333938"
     inkscape:cy="-18.14882"
     inkscape:window-width="1366"
     inkscape:window-height="705"
     inkscape:window-x="-8"
     inkscape:window-y="32"
     inkscape:window-maximized="1"
     inkscape:current-layer="g1" />
  <g
     inkscape:groupmode="layer"
     inkscape:label="Image"
     id="g1"
     transform="translate(-508.97894,-332.5956)">
    <path
       d="m 556.08256,334.89474 c 0,-1.3007 1.056,-2.3613 2.355,-2.2963 9.796,0.49 19.217,4.0284 26.929,10.1502 8.33,6.611 14.177,15.8458 16.591,26.202 2.414,10.3563 1.252,21.2249 -3.295,30.8369 -4.548,9.613 -12.214,17.403 -21.752,22.105 -9.538,4.702 -20.386,6.038 -30.78,3.792 -10.3939,-2.247 -19.7216,-7.945 -26.4659,-16.166 -6.7443,-8.222 -10.5083,-18.484 -10.6796,-29.116 -0.1587,-9.8459 2.772,-19.4732 8.3488,-27.5414 0.7396,-1.07 2.2235,-1.2612 3.2552,-0.4691 1.0318,0.7922 1.22,2.2673 0.4863,3.3415 -4.9324,7.2214 -7.5221,15.8107 -7.3805,24.593 0.1542,9.569 3.5417,18.805 9.6116,26.204 6.0699,7.4 14.4649,12.528 23.8193,14.55 9.3548,2.022 19.1178,0.819 27.7018,-3.413 8.584,-4.231 15.484,-11.243 19.577,-19.894 4.093,-8.651 5.138,-18.4329 2.965,-27.7536 -2.172,-9.3206 -7.435,-17.6319 -14.931,-23.5818 -6.88,-5.4606 -15.27,-8.6373 -24.001,-9.1228 -1.299,-0.0722 -2.355,-1.1198 -2.355,-2.4206 z"
       fill="#febf00"
       id="path34239-6" />
    <circle
       cx="521.16284"
       cy="351.99844"
       r="6.1898098"
       fill="#ffffff"
       stroke="#febf00"
       stroke-width="4"
       id="circle34241-9" />
  </g>
</svg>
